<?xml version="1.0" encoding="utf-8"?>
<!-- Generator: Adobe Illustrator 18.1.1, SVG Export Plug-In . SVG Version: 6.00 Build 0)  -->
<svg version="1.1" id="Layer_1" xmlns="http://www.w3.org/2000/svg" xmlns:xlink="http://www.w3.org/1999/xlink" x="0px" y="0px"
	 viewBox="246 -246 620 620" enable-background="new 246 -246 620 620" xml:space="preserve">
<g transform="translate(0.000000,620.000000) scale(0.100000,-0.100000)">
	<path fill="#050000" d="M2660,7760v-700h700h700v700v700h-700h-700V7760z M3860,7760v-500h-500h-500v500v500h500h500V7760z"/>
	<path fill="#050000" d="M3060,7760v-300h300h300v300v300h-300h-300V7760z"/>
	<path fill="#050000" d="M4460,8160v-300h100h100v-200v-200h-100h-100v100v100h-100h-100v-100v-100h100h100v-100v-100h-100h-100
		v-200v-200h-200h-200v-100v-100h200h200v-100v-100h-200h-200v-100v-100h-200h-200v100v100h-200h-200v100v100h200h200v100v100h-200
		h-200v-100v-100h-100h-100v-100v-100h100h100v-100v-100h-100h-100v-100v-100h200h200v100v100h100h100v-200v-200h-100h-100v-100
		v-100h100h100v-200v-200h-100h-100v-100v-100h100h100v-100v-100h-100h-100v-100v-100h-100h-100v-100v-100h-100h-100v-100v-100h100
		h100v100v100h100h100v100v100h200h200v-200v-200h300h300v-200v-200h100h100v-200v-200h-100h-100v-200v-200h100h100v200v200h100h100
		v200v200h-100h-100v100v100h200h200v-100v-100h100h100v100v100h-100h-100v100v100h300h300v-200v-200h-100h-100v-100v-100h-200h-200
		v-100v-100h100h100v-100v-100h-200h-200v-100v-100h100h100v-100v-100h100h100v-100v-100h300h300v100v100h100h100v-100v-100h200h200
		v100v100h-200h-200v300v300h300h300v-100v-100h-100h-100v-100v-100h200h200v200v200h100h100v-100v-100h100h100v100v100h200h200
		v-100v-100h200h200v-100v-100h-200h-200v-100v-100h-100h-100v100v100h-100h-100v-200v-200h200h200v100v100h200h200v100v100h100h100
		v-200v-200h100h100v200v200h100h100v100v100h-100h-100v100v100h100h100v200v200h-100h-100v100v100h100h100v200v200h-100h-100v100
		v100h-100h-100v200v200h100h100v100v100h-100h-100v-100v-100h-100h-100v300v300h100h100v-100v-100h200h200v400v400h-100h-100v100
		v100h100h100v100v100h-100h-100v-100v-100h-100h-100v100v100h-200h-200v100v100h-100h-100v-100v-100h-100h-100v100v100h-200h-200
		v200v200h-100h-100v200v200h-100h-100v-100v-100h-300h-300v-200v-200h-100h-100v200v200h-100h-100v100v100h-100h-100v-200v-200
		h-100h-100v-100v-100h-100h-100v400v400h100h100v200v200h100h100v-100v-100h100h100v-100v-100h100h100v100v100h-100h-100v200v200
		h-200h-200v-100v-100h-100h-100v100v100h-200h-200V8160z M4860,7960v-100h-100h-100v100v100h100h100V7960z M4660,7060v-200h100h100
		v-100v-100h100h100v100v100h100h100v200v200h100h100v-200v-200h300h300v200v200h100h100v-100v-100h100h100v100v100h100h100v-100
		v-100h-100h-100v-100v-100h-100h-100v-200v-200h100h100v100v100h100h100v100v100h100h100v-100v-100h-100h-100v-400v-400h200h200
		v200v200h100h100v-100v-100h300h300v100v100h-100h-100v100v100h-100h-100v100v100h100h100v-100v-100h100h100v-100v-100h200h200
		v-100v-100h-200h-200v-100v-100h-100h-100v-100v-100h-100h-100v-100v-100h100h100v-200v-200h100h100v-200v-200h-100h-100v-100v-100
		h-100h-100v100v100h100h100v100v100h-200h-200v100v100h-200h-200v-100v-100h100h100v-100v-100h-100h-100v100v100h-100h-100v-200
		v-200h-100h-100v-100v-100h100h100v-100v-100h-100h-100v-100v-100h100h100v-200v-200h-100h-100v100v100h-100h-100v100v100h-100
		h-100v100v100h-200h-200v100v100h-100h-100v100v100h-300h-300v-100v-100h-100h-100v100v100h100h100v100v100h-200h-200v-200v-200
		h-100h-100v100v100h-200h-200v100v100h-100h-100v100v100h100h100v100v100h-100h-100v100v100h100h100v100v100h-100h-100v100v100
		h-100h-100v100v100h100h100v100v100h100h100v100v100h200h200v100v100h300h300v100v100h-200h-200v300v300h100h100V7060z M7260,6560
		v-100h-100h-100v100v100h100h100V6560z M8260,5760v-100h-100h-100v100v100h100h100V5760z M8260,4360v-100h-100h-100v-100v-100h-100
		h-100v-100v-100h100h100v-100v-100h100h100v-100v-100h-100h-100v100v100h-200h-200v200v200h100h100v100v100h100h100v100v100h100
		h100V4360z M7460,3960v-300h-300h-300v300v300h300h300V3960z M5660,3760v-100h100h100v-100v-100h-100h-100v-300v-300h-100h-100v300
		v300h-100h-100v100v100h100h100v100v100h100h100V3760z M8260,3160v-100h-100h-100v100v100h100h100V3160z"/>
	<path fill="#050000" d="M4260,5960v-300h100h100v300v300h-100h-100V5960z"/>
	<path fill="#050000" d="M3860,5960v-100h-100h-100v-100v-100h100h100v-100v-100h100h100v100v100h-100h-100v100v100h100h100v100v100
		h-100h-100V5960z"/>
	<path fill="#050000" d="M7060,5660v-200h100h100v100v100h100h100v100v100h-200h-200V5660z"/>
	<path fill="#050000" d="M6660,5560v-100h100h100v100v100h-100h-100V5560z"/>
	<path fill="#050000" d="M3860,5160v-100h100h100v-100v-100h-100h-100v-100v-100h200h200v100v100h100h100v200v200h-100h-100v-100
		v-100h-100h-100v100v100h-100h-100V5160z"/>
	<path fill="#050000" d="M7260,5160v-100h100h100v100v100h-100h-100V5160z"/>
	<path fill="#050000" d="M5860,4360v-100h100h100v-100v-100h200h200v100v100h-200h-200v100v100h-100h-100V4360z"/>
	<path fill="#050000" d="M7060,3960v-100h100h100v100v100h-100h-100V3960z"/>
	<path fill="#050000" d="M5860,8160v-300h100h100v-100v-100h100h100v100v100h200h200v100v100h-200h-200v100v100h-100h-100v100v100
		h-100h-100V8160z M6260,7960v-100h-100h-100v100v100h100h100V7960z"/>
	<path fill="#050000" d="M7060,7760v-700h700h700v700v700h-700h-700V7760z M8260,7760v-500h-500h-500v500v500h500h500V7760z"/>
	<path fill="#050000" d="M7460,7760v-300h300h300v300v300h-300h-300V7760z"/>
	<path fill="#050000" d="M2660,5760v-100h200h200v100v100h-200h-200V5760z"/>
	<path fill="#050000" d="M2860,5260v-200h100h100v200v200h-100h-100V5260z"/>
	<path fill="#050000" d="M2660,4760v-100h100h100v100v100h-100h-100V4760z"/>
	<path fill="#050000" d="M2660,3360v-700h700h700v700v700h-700h-700V3360z M3860,3360v-500h-500h-500v500v500h500h500V3360z"/>
	<path fill="#050000" d="M3060,3360v-300h300h300v300v300h-300h-300V3360z"/>
	<path fill="#050000" d="M4460,2760v-100h100h100v100v100h-100h-100V2760z"/>
	<path fill="#050000" d="M6460,2760v-100h100h100v100v100h-100h-100V2760z"/>
</g>
<g id="layer1" transform="translate(0,-1004.3622)" inkscape:label="Layer 1" inkscape:groupmode="layer">
	<g id="g3000" transform="translate(-6,1003)">
		<path id="path2987" sodipodi:nodetypes="ccccc" inkscape:connector-curvature="0" fill="#B7806C" d="M562-24.9l-80.7,40.4
			L562,55.8l80.7-40.4L562-24.9z"/>
		<path id="path2989" sodipodi:nodetypes="ccccc" inkscape:connector-curvature="0" fill="#B7785C" d="M562,55.2v100.9l80.7-40.4
			V14.8L562,55.2z"/>
		<path id="path2991" sodipodi:nodetypes="ccccc" inkscape:connector-curvature="0" fill="#8E5B42" d="M562,55.2v100.9l-80.7-40.4
			V14.8L562,55.2z"/>
		<path id="path2993" inkscape:connector-curvature="0" fill="none" stroke="#231F20" stroke-width="5" d="M562-25.5l-80.7,40.4
			v100.9l80.7,40.4l80.7-40.4V14.9L562-25.5z"/>
	</g>
</g>
</svg>
