<svg version="1" xmlns="http://www.w3.org/2000/svg" width="684" height="684" viewBox="0 0 513.000000 513.000000"><path d="M245.5 19.3c-2.2.8-4.4 1.5-5 1.6-.5.1-42.6 21-93.5 46.4-87.8 43.8-92.8 46.5-98.3 51.9-6 5.9-10.8 14.5-12.5 22.4-.5 2.4-.9 51.6-.9 114.4 0 120.8-.3 115.5 6 127.3 6.2 11.8 5 11.1 104.8 61 50.3 25.1 93.2 46.4 95.4 47.3 6 2.5 21.6 2.8 28.1.5 2.8-1 46.4-22.5 96.9-47.7 86.2-43.1 92.2-46.2 97.7-51.6 6.3-6 11.1-14.9 12.6-22.9 1-5.1.9-226.2-.1-229.4-2.8-9.4-7.9-17.7-14.2-23.2-3-2.6-34.3-18.8-97.7-50.5-51.4-25.7-94.7-47-96.3-47.3-6.3-1.4-19-1.5-23-.2z"/></svg>